<svg xmlns="http://www.w3.org/2000/svg" width="1000" height="600"><rect width="1000" height="600" x="0" y="0" fill="#FFFFFF" id="backgorund"/><g transform="translate(50,50)" id="visualization"><g><rect x="596" y="36" height="270.9724770642202" width="6" fill="black"><title>1: 71</title></rect><rect x="596" y="309.9724770642202" height="68.69724770642205" width="6" fill="black"><title>2: 18</title></rect><rect x="596" y="381.66972477064223" height="38.16513761467888" width="6" fill="black"><title>3: 10</title></rect><rect x="894" y="2.842170943040401e-14" height="3.8165137614678883" width="6" fill="black"><title>3: 1</title></rect><rect x="596" y="422.8348623853211" height="30.532110091743107" width="6" fill="black"><title>4: 8</title></rect><rect x="894" y="6.816513761467917" height="22.899082568807344" width="6" fill="black"><title>4: 6</title></rect><rect x="596" y="456.3669724770642" height="7.633027522935777" width="6" fill="black"><title>5: 2</title></rect><rect x="894" y="32.71559633027526" height="11.449541284403665" width="6" fill="black"><title>5: 3</title></rect><rect x="894" y="47.165137614678926" height="30.532110091743107" width="6" fill="black"><title>6: 8</title></rect><rect x="894" y="80.69724770642203" height="3.8165137614678883" width="6" fill="black"><title>7: 1</title></rect><rect x="894" y="87.51376146788992" height="57.24770642201834" width="6" fill="black"><title>8: 15</title></rect><rect x="894" y="147.76146788990826" height="3.8165137614678883" width="6" fill="black"><title>9: 1</title></rect><rect x="894" y="154.57798165137615" height="34.34862385321105" width="6" fill="black"><title>10: 9</title></rect><rect x="894" y="191.9266055045872" height="7.633027522935777" width="6" fill="black"><title>11: 2</title></rect><rect x="894" y="202.55963302752298" height="19.08256880733944" width="6" fill="black"><title>12: 5</title></rect><rect x="894" y="224.64220183486242" height="64.8807339449541" width="6" fill="black"><title>13: 17</title></rect><rect x="894" y="292.5229357798165" height="7.633027522935777" width="6" fill="black"><title>14: 2</title></rect><rect x="894" y="303.1559633027523" height="11.449541284403665" width="6" fill="black"><title>15: 3</title></rect><rect x="894" y="317.60550458715596" height="7.633027522935777" width="6" fill="black"><title>16: 2</title></rect><rect x="894" y="328.23853211009174" height="3.8165137614678883" width="6" fill="black"><title>18: 1</title></rect><rect x="894" y="335.0550458715596" height="19.08256880733944" width="6" fill="black"><title>20: 5</title></rect><rect x="894" y="357.13761467889907" height="3.8165137614678883" width="6" fill="black"><title>21: 1</title></rect><rect x="894" y="363.95412844036696" height="3.8165137614678883" width="6" fill="black"><title>22: 1</title></rect><rect x="894" y="370.77064220183485" height="7.633027522935777" width="6" fill="black"><title>23: 2</title></rect><rect x="894" y="381.4036697247706" height="3.8165137614678883" width="6" fill="black"><title>24: 1</title></rect><rect x="894" y="388.2201834862385" height="22.89908256880733" width="6" fill="black"><title>26: 6</title></rect><rect x="894" y="414.11926605504584" height="7.633027522935777" width="6" fill="black"><title>33: 2</title></rect><rect x="894" y="424.7522935779816" height="3.8165137614678883" width="6" fill="black"><title>36: 1</title></rect><rect x="894" y="431.5688073394495" height="11.449541284403665" width="6" fill="black"><title>39: 3</title></rect><rect x="894" y="446.01834862385317" height="3.8165137614678883" width="6" fill="black"><title>40: 1</title></rect><rect x="894" y="452.83486238532106" height="3.8165137614678883" width="6" fill="black"><title>46: 1</title></rect><rect x="894" y="459.65137614678895" height="22.89908256880733" width="6" fill="black"><title>52: 6</title></rect><rect x="894" y="485.5504587155963" height="7.633027522935777" width="6" fill="black"><title>65: 2</title></rect><rect x="894" y="496.18348623853205" height="3.8165137614678883" width="6" fill="black"><title>90: 1</title></rect><rect x="0" y="35.99999999999997" height="26.715596330275233" width="6" fill="black"><title>2013: 7</title></rect><rect x="0" y="65.7155963302752" height="26.715596330275233" width="6" fill="black"><title>2014: 7</title></rect><rect x="0" y="95.43119266055044" height="91.59633027522935" width="6" fill="black"><title>2015: 24</title></rect><rect x="0" y="190.02752293577979" height="171.74311926605506" width="6" fill="black"><title>2016: 45</title></rect><rect x="0" y="364.77064220183485" height="99.22935779816515" width="6" fill="black"><title>2017: 26</title></rect><rect x="298" y="28.50000000000003" height="3.8165137614678883" width="6" fill="black"><title>Animation: 1</title></rect><rect x="298" y="35.31651376146792" height="95.41284403669724" width="6" fill="black"><title>Comedy: 25</title></rect><rect x="298" y="133.72935779816515" height="53.43119266055044" width="6" fill="black"><title>Docu-Series: 14</title></rect><rect x="298" y="190.1605504587156" height="68.69724770642205" width="6" fill="black"><title>Drama: 18</title></rect><rect x="298" y="261.85779816513764" height="122.12844036697248" width="6" fill="black"><title>Family Animation: 32</title></rect><rect x="298" y="386.9862385321101" height="11.449541284403665" width="6" fill="black"><title>Family Live Action: 3</title></rect><rect x="298" y="401.4357798165138" height="30.532110091743107" width="6" fill="black"><title>Foreign Language: 8</title></rect><rect x="298" y="434.9678899082569" height="15.266055045871553" width="6" fill="black"><title>Marvel: 4</title></rect><rect x="298" y="453.23394495412845" height="7.633027522935777" width="6" fill="black"><title>Reality: 2</title></rect><rect x="298" y="463.8669724770642" height="7.633027522935777" width="6" fill="black"><title>Talk Show: 2</title></rect></g><g fill="none" stroke-opacity="0.7"><g style="mix-blend-mode: normal;"><path d="M6,67.62385321100915C152,67.62385321100915,152,30.408256880733973,298,30.408256880733973" stroke="rgb(232, 246, 164)" stroke-width="3.81651376146789"/><title>2014 → Animation: 1</title></g><g style="mix-blend-mode: normal;"><path d="M6,39.81651376146786C152,39.81651376146786,152,39.133027522935805,298,39.133027522935805" stroke="rgb(247, 250, 175)" stroke-width="7.63302752293578"/><title>2013 → Comedy: 2</title></g><g style="mix-blend-mode: normal;"><path d="M6,73.34862385321098C152,73.34862385321098,152,46.76605504587158,298,46.76605504587158" stroke="rgb(232, 246, 164)" stroke-width="7.63302752293578"/><title>2014 → Comedy: 2</title></g><g style="mix-blend-mode: normal;"><path d="M6,106.8807339449541C152,106.8807339449541,152,62.03211009174314,298,62.03211009174314" stroke="rgb(210, 237, 158)" stroke-width="22.89908256880734"/><title>2015 → Comedy: 6</title></g><g style="mix-blend-mode: normal;"><path d="M6,209.11009174311923C152,209.11009174311923,152,92.56422018348627,298,92.56422018348627" stroke="rgb(179, 224, 161)" stroke-width="38.1651376146789"/><title>2016 → Comedy: 10</title></g><g style="mix-blend-mode: normal;"><path d="M6,374.3119266055046C152,374.3119266055046,152,121.18807339449543,298,121.18807339449543" stroke="rgb(145, 211, 164)" stroke-width="19.08256880733945"/><title>2017 → Comedy: 5</title></g><g style="mix-blend-mode: normal;"><path d="M6,122.14678899082567C152,122.14678899082567,152,137.54587155963304,298,137.54587155963304" stroke="rgb(210, 237, 158)" stroke-width="7.63302752293578"/><title>2015 → Docu-Series: 2</title></g><g style="mix-blend-mode: normal;"><path d="M6,243.45871559633025C152,243.45871559633025,152,156.62844036697248,298,156.62844036697248" stroke="rgb(179, 224, 161)" stroke-width="30.53211009174312"/><title>2016 → Docu-Series: 8</title></g><g style="mix-blend-mode: normal;"><path d="M6,391.48623853211006C152,391.48623853211006,152,179.5275229357798,298,179.5275229357798" stroke="rgb(145, 211, 164)" stroke-width="15.26605504587156"/><title>2017 → Docu-Series: 4</title></g><g style="mix-blend-mode: normal;"><path d="M6,49.35779816513758C152,49.35779816513758,152,195.88532110091742,298,195.88532110091742" stroke="rgb(247, 250, 175)" stroke-width="11.44954128440367"/><title>2013 → Drama: 3</title></g><g style="mix-blend-mode: normal;"><path d="M6,80.98165137614676C152,80.98165137614676,152,205.42660550458714,298,205.42660550458714" stroke="rgb(232, 246, 164)" stroke-width="7.63302752293578"/><title>2014 → Drama: 2</title></g><g style="mix-blend-mode: normal;"><path d="M6,133.59633027522935C152,133.59633027522935,152,216.8761467889908,298,216.8761467889908" stroke="rgb(210, 237, 158)" stroke-width="15.26605504587156"/><title>2015 → Drama: 4</title></g><g style="mix-blend-mode: normal;"><path d="M6,270.17431192660547C152,270.17431192660547,152,235.95871559633025,298,235.95871559633025" stroke="rgb(179, 224, 161)" stroke-width="22.89908256880734"/><title>2016 → Drama: 6</title></g><g style="mix-blend-mode: normal;"><path d="M6,404.8440366972477C152,404.8440366972477,152,253.13302752293575,298,253.13302752293575" stroke="rgb(145, 211, 164)" stroke-width="11.44954128440367"/><title>2017 → Drama: 3</title></g><g style="mix-blend-mode: normal;"><path d="M6,58.89908256880731C152,58.89908256880731,152,265.6743119266055,298,265.6743119266055" stroke="rgb(247, 250, 175)" stroke-width="7.63302752293578"/><title>2013 → Family Animation: 2</title></g><g style="mix-blend-mode: normal;"><path d="M6,88.61467889908253C152,88.61467889908253,152,273.3073394495413,298,273.3073394495413" stroke="rgb(232, 246, 164)" stroke-width="7.63302752293578"/><title>2014 → Family Animation: 2</title></g><g style="mix-blend-mode: normal;"><path d="M6,154.58715596330273C152,154.58715596330273,152,290.48165137614683,298,290.48165137614683" stroke="rgb(210, 237, 158)" stroke-width="26.715596330275233"/><title>2015 → Family Animation: 7</title></g><g style="mix-blend-mode: normal;"><path d="M6,308.33944954128435C152,308.33944954128435,152,330.5550458715596,298,330.5550458715596" stroke="rgb(179, 224, 161)" stroke-width="53.431192660550465"/><title>2016 → Family Animation: 14</title></g><g style="mix-blend-mode: normal;"><path d="M6,423.92660550458714C152,423.92660550458714,152,370.62844036697254,298,370.62844036697254" stroke="rgb(145, 211, 164)" stroke-width="26.715596330275233"/><title>2017 → Family Animation: 7</title></g><g style="mix-blend-mode: normal;"><path d="M6,171.76146788990826C152,171.76146788990826,152,390.802752293578,298,390.802752293578" stroke="rgb(210, 237, 158)" stroke-width="7.63302752293578"/><title>2015 → Family Live Action: 2</title></g><g style="mix-blend-mode: normal;"><path d="M6,439.1926605504587C152,439.1926605504587,152,396.52752293577987,298,396.52752293577987" stroke="rgb(145, 211, 164)" stroke-width="3.81651376146789"/><title>2017 → Family Live Action: 1</title></g><g style="mix-blend-mode: normal;"><path d="M6,177.4862385321101C152,177.4862385321101,152,403.34403669724776,298,403.34403669724776" stroke="rgb(210, 237, 158)" stroke-width="3.81651376146789"/><title>2015 → Foreign Language: 1</title></g><g style="mix-blend-mode: normal;"><path d="M6,342.6880733944954C152,342.6880733944954,152,412.88532110091745,298,412.88532110091745" stroke="rgb(179, 224, 161)" stroke-width="15.26605504587156"/><title>2016 → Foreign Language: 4</title></g><g style="mix-blend-mode: normal;"><path d="M6,446.8256880733945C152,446.8256880733945,152,426.2431192660551,298,426.2431192660551" stroke="rgb(145, 211, 164)" stroke-width="11.44954128440367"/><title>2017 → Foreign Language: 3</title></g><g style="mix-blend-mode: normal;"><path d="M6,183.21100917431193C152,183.21100917431193,152,438.7844036697248,298,438.7844036697248" stroke="rgb(210, 237, 158)" stroke-width="7.63302752293578"/><title>2015 → Marvel: 2</title></g><g style="mix-blend-mode: normal;"><path d="M6,352.22935779816515C152,352.22935779816515,152,444.50917431192664,298,444.50917431192664" stroke="rgb(179, 224, 161)" stroke-width="3.81651376146789"/><title>2016 → Marvel: 1</title></g><g style="mix-blend-mode: normal;"><path d="M6,454.45871559633025C152,454.45871559633025,152,448.32568807339453,298,448.32568807339453" stroke="rgb(145, 211, 164)" stroke-width="3.81651376146789"/><title>2017 → Marvel: 1</title></g><g style="mix-blend-mode: normal;"><path d="M6,356.04587155963304C152,356.04587155963304,152,455.1422018348624,298,455.1422018348624" stroke="rgb(179, 224, 161)" stroke-width="3.81651376146789"/><title>2016 → Reality: 1</title></g><g style="mix-blend-mode: normal;"><path d="M6,458.27522935779814C152,458.27522935779814,152,458.9587155963303,298,458.9587155963303" stroke="rgb(145, 211, 164)" stroke-width="3.81651376146789"/><title>2017 → Reality: 1</title></g><g style="mix-blend-mode: normal;"><path d="M6,359.86238532110093C152,359.86238532110093,152,465.7752293577982,298,465.7752293577982" stroke="rgb(179, 224, 161)" stroke-width="3.81651376146789"/><title>2016 → Talk Show: 1</title></g><g style="mix-blend-mode: normal;"><path d="M6,462.091743119266C152,462.091743119266,152,469.5917431192661,298,469.5917431192661" stroke="rgb(145, 211, 164)" stroke-width="3.81651376146789"/><title>2017 → Talk Show: 1</title></g><g style="mix-blend-mode: normal;"><path d="M304,30.408256880733973C450,30.408256880733973,450,37.908256880733944,596,37.908256880733944" stroke="rgb(158, 1, 66)" stroke-width="3.81651376146789"/><title>Animation → 1: 1</title></g><g style="mix-blend-mode: normal;"><path d="M304,65.84862385321104C450,65.84862385321104,450,70.34862385321101,596,70.34862385321101" stroke="rgb(186, 33, 72)" stroke-width="61.06422018348624"/><title>Comedy → 1: 16</title></g><g style="mix-blend-mode: normal;"><path d="M304,121.18807339449543C450,121.18807339449543,450,387.3944954128441,596,387.3944954128441" stroke="rgb(186, 33, 72)" stroke-width="11.44954128440367"/><title>Comedy → 3: 3</title></g><g style="mix-blend-mode: normal;"><path d="M304,128.8211009174312C450,128.8211009174312,450,424.7431192660551,596,424.7431192660551" stroke="rgb(186, 33, 72)" stroke-width="3.81651376146789"/><title>Comedy → 4: 1</title></g><g style="mix-blend-mode: normal;"><path d="M304,105.92201834862388C450,105.92201834862388,450,319.51376146788994,596,319.51376146788994" stroke="rgb(186, 33, 72)" stroke-width="19.08256880733945"/><title>Comedy → 2: 5</title></g><g style="mix-blend-mode: normal;"><path d="M304,185.25229357798167C450,185.25229357798167,450,395.02752293577987,596,395.02752293577987" stroke="rgb(211, 62, 75)" stroke-width="3.81651376146789"/><title>Docu-Series → 3: 1</title></g><g style="mix-blend-mode: normal;"><path d="M304,158.53669724770643C450,158.53669724770643,450,125.68807339449542,596,125.68807339449542" stroke="rgb(211, 62, 75)" stroke-width="49.61467889908257"/><title>Docu-Series → 1: 13</title></g><g style="mix-blend-mode: normal;"><path d="M304,255.0412844036697C450,255.0412844036697,450,460.1834862385321,596,460.1834862385321" stroke="rgb(230, 90, 73)" stroke-width="7.63302752293578"/><title>Drama → 5: 2</title></g><g style="mix-blend-mode: normal;"><path d="M304,247.40825688073392C450,247.40825688073392,450,400.7522935779817,596,400.7522935779817" stroke="rgb(230, 90, 73)" stroke-width="7.63302752293578"/><title>Drama → 3: 2</title></g><g style="mix-blend-mode: normal;"><path d="M304,235.95871559633025C450,235.95871559633025,450,336.6880733944954,596,336.6880733944954" stroke="rgb(230, 90, 73)" stroke-width="15.26605504587156"/><title>Drama → 2: 4</title></g><g style="mix-blend-mode: normal;"><path d="M304,209.24311926605503C450,209.24311926605503,450,169.57798165137615,596,169.57798165137615" stroke="rgb(230, 90, 73)" stroke-width="38.1651376146789"/><title>Drama → 1: 10</title></g><g style="mix-blend-mode: normal;"><path d="M304,370.6284403669725C450,370.6284403669725,450,440.00917431192664,596,440.00917431192664" stroke="rgb(242, 118, 75)" stroke-width="26.715596330275233"/><title>Family Animation → 4: 7</title></g><g style="mix-blend-mode: normal;"><path d="M304,351.54587155963304C450,351.54587155963304,450,410.2935779816514,596,410.2935779816514" stroke="rgb(242, 118, 75)" stroke-width="11.44954128440367"/><title>Family Animation → 3: 3</title></g><g style="mix-blend-mode: normal;"><path d="M304,334.3715596330275C450,334.3715596330275,450,355.77064220183485,596,355.77064220183485" stroke="rgb(242, 118, 75)" stroke-width="22.89908256880734"/><title>Family Animation → 2: 6</title></g><g style="mix-blend-mode: normal;"><path d="M304,292.38990825688074C450,292.38990825688074,450,219.1926605504587,596,219.1926605504587" stroke="rgb(242, 118, 75)" stroke-width="61.06422018348624"/><title>Family Animation → 1: 16</title></g><g style="mix-blend-mode: normal;"><path d="M304,392.711009174312C450,392.711009174312,450,369.1284403669725,596,369.1284403669725" stroke="rgb(249, 150, 87)" stroke-width="3.81651376146789"/><title>Family Live Action → 2: 1</title></g><g style="mix-blend-mode: normal;"><path d="M304,396.52752293577987C450,396.52752293577987,450,417.9266055045872,596,417.9266055045872" stroke="rgb(249, 150, 87)" stroke-width="3.81651376146789"/><title>Family Live Action → 3: 1</title></g><g style="mix-blend-mode: normal;"><path d="M304,388.8944954128441C450,388.8944954128441,450,251.63302752293578,596,251.63302752293578" stroke="rgb(249, 150, 87)" stroke-width="3.81651376146789"/><title>Family Live Action → 1: 1</title></g><g style="mix-blend-mode: normal;"><path d="M304,430.059633027523C450,430.059633027523,450,372.9449541284404,596,372.9449541284404" stroke="rgb(252, 180, 105)" stroke-width="3.81651376146789"/><title>Foreign Language → 2: 1</title></g><g style="mix-blend-mode: normal;"><path d="M304,414.7935779816514C450,414.7935779816514,450,266.89908256880733,596,266.89908256880733" stroke="rgb(252, 180, 105)" stroke-width="26.715596330275233"/><title>Foreign Language → 1: 7</title></g><g style="mix-blend-mode: normal;"><path d="M304,448.32568807339453C450,448.32568807339453,450,376.76146788990826,596,376.76146788990826" stroke="rgb(254, 207, 126)" stroke-width="3.81651376146789"/><title>Marvel → 2: 1</title></g><g style="mix-blend-mode: normal;"><path d="M304,440.69266055045875C450,440.69266055045875,450,285.98165137614683,596,285.98165137614683" stroke="rgb(254, 207, 126)" stroke-width="11.44954128440367"/><title>Marvel → 1: 3</title></g><g style="mix-blend-mode: normal;"><path d="M304,457.05045871559633C450,457.05045871559633,450,295.5229357798165,596,295.5229357798165" stroke="rgb(254, 229, 151)" stroke-width="7.63302752293578"/><title>Reality → 1: 2</title></g><g style="mix-blend-mode: normal;"><path d="M304,467.6834862385321C450,467.6834862385321,450,303.1559633027523,596,303.1559633027523" stroke="rgb(253, 244, 171)" stroke-width="7.63302752293578"/><title>Talk Show → 1: 2</title></g><g style="mix-blend-mode: normal;"><path d="M602,251.63302752293578C748,251.63302752293578,748,257.0825688073395,894,257.0825688073395" stroke="rgb(111, 193, 168)" stroke-width="64.88073394495413"/><title>1 → 13: 17</title></g><g style="mix-blend-mode: normal;"><path d="M602,291.7064220183486C748,291.7064220183486,748,306.9724770642202,894,306.9724770642202" stroke="rgb(111, 193, 168)" stroke-width="7.63302752293578"/><title>1 → 15: 2</title></g><g style="mix-blend-mode: normal;"><path d="M602,49.35779816513761C748,49.35779816513761,748,16.35779816513764,894,16.35779816513764" stroke="rgb(111, 193, 168)" stroke-width="19.08256880733945"/><title>1 → 4: 5</title></g><g style="mix-blend-mode: normal;"><path d="M602,402.66055045871565C748,402.66055045871565,748,426.6605504587156,894,426.6605504587156" stroke="rgb(66, 139, 181)" stroke-width="3.81651376146789"/><title>3 → 36: 1</title></g><g style="mix-blend-mode: normal;"><path d="M602,428.559633027523C748,428.559633027523,748,447.92660550458714,894,447.92660550458714" stroke="rgb(73, 109, 175)" stroke-width="3.81651376146789"/><title>4 → 40: 1</title></g><g style="mix-blend-mode: normal;"><path d="M602,410.2935779816514C748,410.2935779816514,748,437.29357798165137,894,437.29357798165137" stroke="rgb(66, 139, 181)" stroke-width="11.44954128440367"/><title>3 → 39: 3</title></g><g style="mix-blend-mode: normal;"><path d="M602,336.6880733944954C748,336.6880733944954,748,346.5045871559633,894,346.5045871559633" stroke="rgb(82, 169, 175)" stroke-width="15.26605504587156"/><title>2 → 20: 4</title></g><g style="mix-blend-mode: normal;"><path d="M602,62.715596330275226C748,62.715596330275226,748,36.53211009174315,894,36.53211009174315" stroke="rgb(111, 193, 168)" stroke-width="7.63302752293578"/><title>1 → 5: 2</title></g><g style="mix-blend-mode: normal;"><path d="M602,129.5045871559633C748,129.5045871559633,748,116.1376146788991,894,116.1376146788991" stroke="rgb(111, 193, 168)" stroke-width="57.247706422018354"/><title>1 → 8: 15</title></g><g style="mix-blend-mode: normal;"><path d="M602,327.1467889908257C748,327.1467889908257,748,319.51376146788994,894,319.51376146788994" stroke="rgb(82, 169, 175)" stroke-width="3.81651376146789"/><title>2 → 16: 1</title></g><g style="mix-blend-mode: normal;"><path d="M602,350.04587155963304C748,350.04587155963304,748,365.86238532110093,894,365.86238532110093" stroke="rgb(82, 169, 175)" stroke-width="3.81651376146789"/><title>2 → 22: 1</title></g><g style="mix-blend-mode: normal;"><path d="M602,371.0366972477064C748,371.0366972477064,748,399.6697247706422,894,399.6697247706422" stroke="rgb(82, 169, 175)" stroke-width="15.26605504587156"/><title>2 → 26: 4</title></g><g style="mix-blend-mode: normal;"><path d="M602,323.3302752293578C748,323.3302752293578,748,298.2477064220184,894,298.2477064220184" stroke="rgb(82, 169, 175)" stroke-width="3.81651376146789"/><title>2 → 14: 1</title></g><g style="mix-blend-mode: normal;"><path d="M602,297.43119266055044C748,297.43119266055044,748,336.9633027522936,894,336.9633027522936" stroke="rgb(111, 193, 168)" stroke-width="3.81651376146789"/><title>1 → 20: 1</title></g><g style="mix-blend-mode: normal;"><path d="M602,211.55963302752292C748,211.55963302752292,748,210.19266055045875,894,210.19266055045875" stroke="rgb(111, 193, 168)" stroke-width="15.26605504587156"/><title>1 → 12: 4</title></g><g style="mix-blend-mode: normal;"><path d="M602,179.11926605504587C748,179.11926605504587,748,171.75229357798165,894,171.75229357798165" stroke="rgb(111, 193, 168)" stroke-width="34.34862385321101"/><title>1 → 10: 9</title></g><g style="mix-blend-mode: normal;"><path d="M602,285.9816513761468C748,285.9816513761468,748,294.4311926605505,894,294.4311926605505" stroke="rgb(111, 193, 168)" stroke-width="3.81651376146789"/><title>1 → 14: 1</title></g><g style="mix-blend-mode: normal;"><path d="M602,387.3944954128441C748,387.3944954128441,748,330.1467889908257,894,330.1467889908257" stroke="rgb(66, 139, 181)" stroke-width="3.81651376146789"/><title>3 → 18: 1</title></g><g style="mix-blend-mode: normal;"><path d="M602,81.79816513761469C748,81.79816513761469,748,62.43119266055049,894,62.43119266055049" stroke="rgb(111, 193, 168)" stroke-width="30.53211009174312"/><title>1 → 6: 8</title></g><g style="mix-blend-mode: normal;"><path d="M602,37.908256880733944C748,37.908256880733944,748,1.9082568807339735,894,1.9082568807339735" stroke="rgb(111, 193, 168)" stroke-width="3.81651376146789"/><title>1 → 3: 1</title></g><g style="mix-blend-mode: normal;"><path d="M602,98.97247706422019C748,98.97247706422019,748,82.60550458715598,894,82.60550458715598" stroke="rgb(111, 193, 168)" stroke-width="3.81651376146789"/><title>1 → 7: 1</title></g><g style="mix-blend-mode: normal;"><path d="M602,460.1834862385321C748,460.1834862385321,748,489.36697247706417,894,489.36697247706417" stroke="rgb(94, 79, 162)" stroke-width="7.63302752293578"/><title>5 → 65: 2</title></g><g style="mix-blend-mode: normal;"><path d="M602,396.9357798165138C748,396.9357798165138,748,417.93577981651373,894,417.93577981651373" stroke="rgb(66, 139, 181)" stroke-width="7.63302752293578"/><title>3 → 33: 2</title></g><g style="mix-blend-mode: normal;"><path d="M602,355.77064220183485C748,355.77064220183485,748,374.58715596330273,894,374.58715596330273" stroke="rgb(82, 169, 175)" stroke-width="7.63302752293578"/><title>2 → 23: 2</title></g><g style="mix-blend-mode: normal;"><path d="M602,160.03669724770643C748,160.03669724770643,748,149.6697247706422,894,149.6697247706422" stroke="rgb(111, 193, 168)" stroke-width="3.81651376146789"/><title>1 → 9: 1</title></g><g style="mix-blend-mode: normal;"><path d="M602,200.11009174311926C748,200.11009174311926,748,195.7431192660551,894,195.7431192660551" stroke="rgb(111, 193, 168)" stroke-width="7.63302752293578"/><title>1 → 11: 2</title></g><g style="mix-blend-mode: normal;"><path d="M602,424.7431192660551C748,424.7431192660551,748,323.3302752293578,894,323.3302752293578" stroke="rgb(73, 109, 175)" stroke-width="3.81651376146789"/><title>4 → 16: 1</title></g><g style="mix-blend-mode: normal;"><path d="M602,417.9266055045872C748,417.9266055045872,748,461.5596330275229,894,461.5596330275229" stroke="rgb(66, 139, 181)" stroke-width="3.81651376146789"/><title>3 → 52: 1</title></g><g style="mix-blend-mode: normal;"><path d="M602,443.82568807339453C748,443.82568807339453,748,473.0091743119266,894,473.0091743119266" stroke="rgb(73, 109, 175)" stroke-width="19.08256880733945"/><title>4 → 52: 5</title></g><g style="mix-blend-mode: normal;"><path d="M602,432.37614678899087C748,432.37614678899087,748,454.74311926605503,894,454.74311926605503" stroke="rgb(73, 109, 175)" stroke-width="3.81651376146789"/><title>4 → 46: 1</title></g><g style="mix-blend-mode: normal;"><path d="M602,391.211009174312C748,391.211009174312,748,409.2110091743119,894,409.2110091743119" stroke="rgb(66, 139, 181)" stroke-width="3.81651376146789"/><title>3 → 26: 1</title></g><g style="mix-blend-mode: normal;"><path d="M602,319.51376146788994C748,319.51376146788994,748,219.73394495412848,894,219.73394495412848" stroke="rgb(82, 169, 175)" stroke-width="3.81651376146789"/><title>2 → 12: 1</title></g><g style="mix-blend-mode: normal;"><path d="M602,315.69724770642205C748,315.69724770642205,748,42.25688073394498,894,42.25688073394498" stroke="rgb(82, 169, 175)" stroke-width="3.81651376146789"/><title>2 → 5: 1</title></g><g style="mix-blend-mode: normal;"><path d="M602,311.88073394495416C748,311.88073394495416,748,27.80733944954131,894,27.80733944954131" stroke="rgb(82, 169, 175)" stroke-width="3.81651376146789"/><title>2 → 4: 1</title></g><g style="mix-blend-mode: normal;"><path d="M602,361.4954128440367C748,361.4954128440367,748,383.3119266055046,894,383.3119266055046" stroke="rgb(82, 169, 175)" stroke-width="3.81651376146789"/><title>2 → 24: 1</title></g><g style="mix-blend-mode: normal;"><path d="M602,301.2477064220183C748,301.2477064220183,748,390.1284403669725,894,390.1284403669725" stroke="rgb(111, 193, 168)" stroke-width="3.81651376146789"/><title>1 → 26: 1</title></g><g style="mix-blend-mode: normal;"><path d="M602,346.22935779816515C748,346.22935779816515,748,359.04587155963304,894,359.04587155963304" stroke="rgb(82, 169, 175)" stroke-width="3.81651376146789"/><title>2 → 21: 1</title></g><g style="mix-blend-mode: normal;"><path d="M602,383.5779816513762C748,383.5779816513762,748,312.69724770642205,894,312.69724770642205" stroke="rgb(66, 139, 181)" stroke-width="3.81651376146789"/><title>3 → 15: 1</title></g><g style="mix-blend-mode: normal;"><path d="M602,305.0642201834862C748,305.0642201834862,748,498.091743119266,894,498.091743119266" stroke="rgb(111, 193, 168)" stroke-width="3.81651376146789"/><title>1 → 90: 1</title></g></g><g><text x="592" y="171.4862385321101" text-anchor="end"><tspan alignment-baseline="middle" x="592" style="font-family: Arial, sans-serif; font-size: 10px; fill: black; font-weight: bold;">1</tspan></text><text x="592" y="344.3211009174312" text-anchor="end"><tspan alignment-baseline="middle" x="592" style="font-family: Arial, sans-serif; font-size: 10px; fill: black; font-weight: bold;">2</tspan></text><text x="592" y="400.7522935779817" text-anchor="end"><tspan alignment-baseline="middle" x="592" style="font-family: Arial, sans-serif; font-size: 10px; fill: black; font-weight: bold;">3</tspan></text><text x="890" y="1.9082568807339726" text-anchor="end"><tspan alignment-baseline="middle" x="890" style="font-family: Arial, sans-serif; font-size: 10px; fill: black; font-weight: bold;">3</tspan></text><text x="592" y="438.10091743119267" text-anchor="end"><tspan alignment-baseline="middle" x="592" style="font-family: Arial, sans-serif; font-size: 10px; fill: black; font-weight: bold;">4</tspan></text><text x="890" y="18.26605504587159" text-anchor="end"><tspan alignment-baseline="middle" x="890" style="font-family: Arial, sans-serif; font-size: 10px; fill: black; font-weight: bold;">4</tspan></text><text x="592" y="460.1834862385321" text-anchor="end"><tspan alignment-baseline="middle" x="592" style="font-family: Arial, sans-serif; font-size: 10px; fill: black; font-weight: bold;">5</tspan></text><text x="890" y="38.440366972477094" text-anchor="end"><tspan alignment-baseline="middle" x="890" style="font-family: Arial, sans-serif; font-size: 10px; fill: black; font-weight: bold;">5</tspan></text><text x="890" y="62.43119266055048" text-anchor="end"><tspan alignment-baseline="middle" x="890" style="font-family: Arial, sans-serif; font-size: 10px; fill: black; font-weight: bold;">6</tspan></text><text x="890" y="82.60550458715598" text-anchor="end"><tspan alignment-baseline="middle" x="890" style="font-family: Arial, sans-serif; font-size: 10px; fill: black; font-weight: bold;">7</tspan></text><text x="890" y="116.1376146788991" text-anchor="end"><tspan alignment-baseline="middle" x="890" style="font-family: Arial, sans-serif; font-size: 10px; fill: black; font-weight: bold;">8</tspan></text><text x="890" y="149.6697247706422" text-anchor="end"><tspan alignment-baseline="middle" x="890" style="font-family: Arial, sans-serif; font-size: 10px; fill: black; font-weight: bold;">9</tspan></text><text x="890" y="171.75229357798167" text-anchor="end"><tspan alignment-baseline="middle" x="890" style="font-family: Arial, sans-serif; font-size: 10px; fill: black; font-weight: bold;">10</tspan></text><text x="890" y="195.7431192660551" text-anchor="end"><tspan alignment-baseline="middle" x="890" style="font-family: Arial, sans-serif; font-size: 10px; fill: black; font-weight: bold;">11</tspan></text><text x="890" y="212.1009174311927" text-anchor="end"><tspan alignment-baseline="middle" x="890" style="font-family: Arial, sans-serif; font-size: 10px; fill: black; font-weight: bold;">12</tspan></text><text x="890" y="257.0825688073395" text-anchor="end"><tspan alignment-baseline="middle" x="890" style="font-family: Arial, sans-serif; font-size: 10px; fill: black; font-weight: bold;">13</tspan></text><text x="890" y="296.3394495412844" text-anchor="end"><tspan alignment-baseline="middle" x="890" style="font-family: Arial, sans-serif; font-size: 10px; fill: black; font-weight: bold;">14</tspan></text><text x="890" y="308.88073394495416" text-anchor="end"><tspan alignment-baseline="middle" x="890" style="font-family: Arial, sans-serif; font-size: 10px; fill: black; font-weight: bold;">15</tspan></text><text x="890" y="321.42201834862385" text-anchor="end"><tspan alignment-baseline="middle" x="890" style="font-family: Arial, sans-serif; font-size: 10px; fill: black; font-weight: bold;">16</tspan></text><text x="890" y="330.1467889908257" text-anchor="end"><tspan alignment-baseline="middle" x="890" style="font-family: Arial, sans-serif; font-size: 10px; fill: black; font-weight: bold;">18</tspan></text><text x="890" y="344.5963302752293" text-anchor="end"><tspan alignment-baseline="middle" x="890" style="font-family: Arial, sans-serif; font-size: 10px; fill: black; font-weight: bold;">20</tspan></text><text x="890" y="359.04587155963304" text-anchor="end"><tspan alignment-baseline="middle" x="890" style="font-family: Arial, sans-serif; font-size: 10px; fill: black; font-weight: bold;">21</tspan></text><text x="890" y="365.8623853211009" text-anchor="end"><tspan alignment-baseline="middle" x="890" style="font-family: Arial, sans-serif; font-size: 10px; fill: black; font-weight: bold;">22</tspan></text><text x="890" y="374.58715596330273" text-anchor="end"><tspan alignment-baseline="middle" x="890" style="font-family: Arial, sans-serif; font-size: 10px; fill: black; font-weight: bold;">23</tspan></text><text x="890" y="383.3119266055046" text-anchor="end"><tspan alignment-baseline="middle" x="890" style="font-family: Arial, sans-serif; font-size: 10px; fill: black; font-weight: bold;">24</tspan></text><text x="890" y="399.6697247706422" text-anchor="end"><tspan alignment-baseline="middle" x="890" style="font-family: Arial, sans-serif; font-size: 10px; fill: black; font-weight: bold;">26</tspan></text><text x="890" y="417.93577981651373" text-anchor="end"><tspan alignment-baseline="middle" x="890" style="font-family: Arial, sans-serif; font-size: 10px; fill: black; font-weight: bold;">33</tspan></text><text x="890" y="426.66055045871553" text-anchor="end"><tspan alignment-baseline="middle" x="890" style="font-family: Arial, sans-serif; font-size: 10px; fill: black; font-weight: bold;">36</tspan></text><text x="890" y="437.2935779816513" text-anchor="end"><tspan alignment-baseline="middle" x="890" style="font-family: Arial, sans-serif; font-size: 10px; fill: black; font-weight: bold;">39</tspan></text><text x="890" y="447.9266055045871" text-anchor="end"><tspan alignment-baseline="middle" x="890" style="font-family: Arial, sans-serif; font-size: 10px; fill: black; font-weight: bold;">40</tspan></text><text x="890" y="454.74311926605503" text-anchor="end"><tspan alignment-baseline="middle" x="890" style="font-family: Arial, sans-serif; font-size: 10px; fill: black; font-weight: bold;">46</tspan></text><text x="890" y="471.1009174311926" text-anchor="end"><tspan alignment-baseline="middle" x="890" style="font-family: Arial, sans-serif; font-size: 10px; fill: black; font-weight: bold;">52</tspan></text><text x="890" y="489.36697247706417" text-anchor="end"><tspan alignment-baseline="middle" x="890" style="font-family: Arial, sans-serif; font-size: 10px; fill: black; font-weight: bold;">65</tspan></text><text x="890" y="498.09174311926597" text-anchor="end"><tspan alignment-baseline="middle" x="890" style="font-family: Arial, sans-serif; font-size: 10px; fill: black; font-weight: bold;">90</tspan></text><text x="10" y="49.35779816513759" text-anchor="start"><tspan alignment-baseline="middle" x="10" style="font-family: Arial, sans-serif; font-size: 10px; fill: black; font-weight: bold;">2013</tspan></text><text x="10" y="79.07339449541283" text-anchor="start"><tspan alignment-baseline="middle" x="10" style="font-family: Arial, sans-serif; font-size: 10px; fill: black; font-weight: bold;">2014</tspan></text><text x="10" y="141.2293577981651" text-anchor="start"><tspan alignment-baseline="middle" x="10" style="font-family: Arial, sans-serif; font-size: 10px; fill: black; font-weight: bold;">2015</tspan></text><text x="10" y="275.89908256880733" text-anchor="start"><tspan alignment-baseline="middle" x="10" style="font-family: Arial, sans-serif; font-size: 10px; fill: black; font-weight: bold;">2016</tspan></text><text x="10" y="414.3853211009174" text-anchor="start"><tspan alignment-baseline="middle" x="10" style="font-family: Arial, sans-serif; font-size: 10px; fill: black; font-weight: bold;">2017</tspan></text><text x="308" y="30.408256880733973" text-anchor="start"><tspan alignment-baseline="middle" x="308" style="font-family: Arial, sans-serif; font-size: 10px; fill: black; font-weight: bold;">Animation</tspan></text><text x="308" y="83.02293577981654" text-anchor="start"><tspan alignment-baseline="middle" x="308" style="font-family: Arial, sans-serif; font-size: 10px; fill: black; font-weight: bold;">Comedy</tspan></text><text x="308" y="160.44495412844037" text-anchor="start"><tspan alignment-baseline="middle" x="308" style="font-family: Arial, sans-serif; font-size: 10px; fill: black; font-weight: bold;">Docu-Series</tspan></text><text x="308" y="224.5091743119266" text-anchor="start"><tspan alignment-baseline="middle" x="308" style="font-family: Arial, sans-serif; font-size: 10px; fill: black; font-weight: bold;">Drama</tspan></text><text x="308" y="322.92201834862385" text-anchor="start"><tspan alignment-baseline="middle" x="308" style="font-family: Arial, sans-serif; font-size: 10px; fill: black; font-weight: bold;">Family Animation</tspan></text><text x="308" y="392.7110091743119" text-anchor="start"><tspan alignment-baseline="middle" x="308" style="font-family: Arial, sans-serif; font-size: 10px; fill: black; font-weight: bold;">Family Live Action</tspan></text><text x="308" y="416.70183486238534" text-anchor="start"><tspan alignment-baseline="middle" x="308" style="font-family: Arial, sans-serif; font-size: 10px; fill: black; font-weight: bold;">Foreign Language</tspan></text><text x="308" y="442.60091743119267" text-anchor="start"><tspan alignment-baseline="middle" x="308" style="font-family: Arial, sans-serif; font-size: 10px; fill: black; font-weight: bold;">Marvel</tspan></text><text x="308" y="457.05045871559633" text-anchor="start"><tspan alignment-baseline="middle" x="308" style="font-family: Arial, sans-serif; font-size: 10px; fill: black; font-weight: bold;">Reality</tspan></text><text x="308" y="467.6834862385321" text-anchor="start"><tspan alignment-baseline="middle" x="308" style="font-family: Arial, sans-serif; font-size: 10px; fill: black; font-weight: bold;">Talk Show</tspan></text></g><g><text x="599" y="32" text-anchor="middle" style="font-family: Arial, sans-serif; font-size: 12px; fill: rgb(123, 123, 123); font-weight: bold;">Seasons</text><text x="897" y="-3.9999999999999716" text-anchor="middle" style="font-family: Arial, sans-serif; font-size: 12px; fill: rgb(123, 123, 123); font-weight: bold;">Episodes</text><text x="3" y="31.99999999999997" text-anchor="middle" style="font-family: Arial, sans-serif; font-size: 12px; fill: rgb(123, 123, 123); font-weight: bold;">Premiere_Year</text><text x="301" y="24.50000000000003" text-anchor="middle" style="font-family: Arial, sans-serif; font-size: 12px; fill: rgb(123, 123, 123); font-weight: bold;">Genere</text></g></g></svg>